<svg width="200" height="200" viewBox="0 0 200 200" xmlns="http://www.w3.org/2000/svg">
  <defs>
    <linearGradient id="grad1" x1="0%" y1="0%" x2="100%" y2="100%">
      <stop offset="0%" style="stop-color:#6366f1;stop-opacity:1" />
      <stop offset="100%" style="stop-color:#8b5cf6;stop-opacity:1" />
    </linearGradient>
    <linearGradient id="grad2" x1="0%" y1="0%" x2="100%" y2="100%">
      <stop offset="0%" style="stop-color:#ec4899;stop-opacity:1" />
      <stop offset="100%" style="stop-color:#8b5cf6;stop-opacity:1" />
    </linearGradient>
  </defs>

  <!-- Background circle with subtle gradient -->
  <circle cx="100" cy="100" r="95" fill="url(#grad1)" opacity="0.1"/>

  <!-- Robot head outline -->
  <path d="M70 60 L130 60 L140 80 L140 120 L130 140 L70 140 L60 120 L60 80 Z"
        fill="none" stroke="url(#grad1)" stroke-width="8" stroke-linejoin="round"/>

  <!-- Robot eyes -->
  <circle cx="80" cy="95" r="8" fill="url(#grad2)"/>
  <circle cx="120" cy="95" r="8" fill="url(#grad2)"/>

  <!-- Robot mouth -->
  <path d="M85 120 Q100 125 115 120"
        fill="none" stroke="url(#grad2)" stroke-width="4" stroke-linecap="round"/>

  <!-- Circuit board pattern -->
  <path d="M75 75 L85 75 M90 75 L100 75 M105 75 L115 75 M75 80 L75 90 M125 80 L125 90 M80 105 L90 105 M110 105 L120 105 M95 110 L95 120 M105 110 L105 120"
        stroke="url(#grad1)" stroke-width="2" stroke-linecap="round" opacity="0.6"/>

  <!-- Accent details -->
  <circle cx="100" cy="70" r="3" fill="url(#grad2)" opacity="0.8"/>
  <circle cx="100" cy="130" r="3" fill="url(#grad2)" opacity="0.8"/>

  <!-- Subtle glow effect -->
  <circle cx="100" cy="100" r="95" fill="none" stroke="url(#grad2)" stroke-width="1" opacity="0.2"/>
</svg>